<svg xmlns="http://www.w3.org/2000/svg" width="280.33" height="256.42" viewBox="0 0 280.33 256.42">
	<style type="text/css">
		.st2{fill:#d36bc5;}
		.st1{fill:#f0c419;}
		.st4{fill:#e2413e;}
		.st3{fill:#dadada;}
		.st6{fill:#ffffff;}
		.st5{fill:#28384f;}
		.st7{fill:#33aeff;}
		.st0{fill:#a4c639;}
	</style>
	<path class="st0" d="M104.59,129.47L104.65,120.87C104.66,119.25 104.73,117.07 104.86,114.32C105,111.57 105.1,110.13 105.17,110L104.61,110C103.45,112.58 102.14,115 100.67,117.25L92.4,129.39ZM132.36,144.56L124.22,144.51L124.12,158.82L104.4,158.7L104.49,144.38L75.01,144.19L75.1,129.53L106.14,84.77L124.6,84.89L124.31,129.59L132.45,129.65Z"/>
	<path class="st1" d="M137.7,147.39C137.06,155.73 137.14,161.5 137.93,164.71C138.73,167.91 140.36,169.61 142.82,169.8C145.3,170 147.18,168.52 148.46,165.37C149.74,162.22 150.69,156.58 151.32,148.45C151.95,140.28 151.87,134.51 151.08,131.16C150.29,127.8 148.67,126.02 146.22,125.83C143.77,125.64 141.89,127.09 140.61,130.17C139.32,133.25 138.35,138.99 137.7,147.39M171.13,149.98C170.12,163.02 167.2,172.41 162.36,178.14C157.52,183.87 150.6,186.38 141.59,185.69C132.78,185 126.39,181.32 122.41,174.64C118.42,167.96 116.92,158.36 117.89,145.86C118.9,132.75 121.83,123.3 126.67,117.53C131.52,111.75 138.44,109.2 147.45,109.9C156.23,110.58 162.61,114.28 166.6,121C170.6,127.71 172.11,137.37 171.13,149.98"/>
	<path class="st2" d="M186.53,124.11L185.46,115.57C185.26,113.97 185.04,111.8 184.82,109.06C184.59,106.31 184.51,104.87 184.55,104.73L184,104.8C183.19,107.52 182.2,110.09 181.05,112.51L174.43,125.62ZM216.03,135.44L207.95,136.45L209.74,150.65L190.17,153.11L188.38,138.91L159.13,142.58L157.3,128.03L182.22,79.59L200.53,77.29L206.1,121.65L214.18,120.64Z"/>
	<path class="st3" d="M87.32,192.9L204.73,192.9L220.98,104.86L74.34,104.86ZM210.83,200.24L80.99,200.24L65.85,97.52L229.8,97.52Z"/>
	<path class="st3" d="M220.25 -128.64L75.24 -128.64L75.24 -124.64L220.25 -124.64Z"/>
	<path class="st3" d="M214.23 -90.19L81.25 -90.19L81.25 -86.19L214.23 -86.19Z"/>
	<path class="st3" d="M149.74 -155.23L145.74 -155.23L145.74 -59.85L149.74 -59.85Z"/>
	<path class="st3" d="M108.79,196.78L98.88,101.4L102.86,100.99L112.77,196.36Z"/>
	<path class="st3" d="M184.86,196.81L180.89,196.32L192.63,100.95L196.6,101.44Z"/>
	<path class="st3" d="M67.54,107.33L50.01,89.92L26.85,89.92L26.85,77.44L55.16,77.44L76.33,98.48Z"/>
	<path class="st3" d="M202.41,234.78L83.67,234.78C70.66,234.78 60.07,224.19 60.07,211.18C60.07,198.17 70.66,187.58 83.67,187.58L84.15,187.58L84.15,200.05L83.67,200.05C77.53,200.05 72.54,205.05 72.54,211.18C72.54,217.32 77.53,222.31 83.67,222.31L202.41,222.31Z"/>
	<path class="st4" d="M41.65,89.92L19.15,89.92C15.71,89.92 12.91,87.12 12.91,83.68C12.91,80.24 15.71,77.44 19.15,77.44L41.65,77.44C45.09,77.44 47.89,80.24 47.89,83.68C47.89,87.12 45.09,89.92 41.65,89.92"/>
	<path class="st5" d="M222.1,234.29C222.1,246.52 212.19,256.42 199.96,256.42C187.74,256.42 177.83,246.52 177.83,234.29C177.83,222.07 187.74,212.16 199.96,212.16C212.19,212.16 222.1,222.07 222.1,234.29"/>
	<path class="st6" d="M211.09,234.29C211.09,240.44 206.11,245.42 199.96,245.42C193.82,245.42 188.84,240.44 188.84,234.29C188.84,228.15 193.82,223.16 199.96,223.16C206.11,223.16 211.09,228.15 211.09,234.29"/>
	<path class="st5" d="M106.02,234.29C106.02,246.52 96.11,256.42 83.89,256.42C71.66,256.42 61.75,246.52 61.75,234.29C61.75,222.07 71.66,212.16 83.89,212.16C96.11,212.16 106.02,222.07 106.02,234.29"/>
	<path class="st6" d="M95.01,234.29C95.01,240.44 90.03,245.42 83.89,245.42C77.74,245.42 72.76,240.44 72.76,234.29C72.76,228.15 77.74,223.16 83.89,223.16C90.03,223.16 95.01,228.15 95.01,234.29"/>
	<path class="st1" d="M86.92,39.41C86.92,40.98 85.65,42.24 84.09,42.24C82.52,42.24 81.25,40.98 81.25,39.41C81.25,37.85 82.52,36.58 84.09,36.58C85.65,36.58 86.92,37.85 86.92,39.41"/>
	<path class="st7" d="M159.47,87.1C159.47,89.03 157.9,90.6 155.97,90.6C154.04,90.6 152.47,89.03 152.47,87.1C152.47,85.17 154.04,83.6 155.97,83.6C157.9,83.6 159.47,85.17 159.47,87.1"/>
	<path class="st0" d="M250.66,70.5C250.66,72.01 249.43,73.25 247.91,73.25C246.39,73.25 245.16,72.01 245.16,70.5C245.16,68.98 246.39,67.75 247.91,67.75C249.43,67.75 250.66,68.98 250.66,70.5"/>
	<path class="st1" d="M94.5,155.74C94.5,157.26 93.27,158.49 91.75,158.49C90.23,158.49 89,157.26 89,155.74C89,154.23 90.23,152.99 91.75,152.99C93.27,152.99 94.5,154.23 94.5,155.74"/>
	<path class="st2" d="M157.6,3C157.6,4.51 156.37,5.75 154.85,5.75C153.33,5.75 152.1,4.51 152.1,3C152.1,1.48 153.33,0.25 154.85,0.25C156.37,0.25 157.6,1.48 157.6,3"/>
	<path class="st4" d="M273.75,119.25C273.75,120.76 272.51,122 271,122C269.48,122 268.25,120.76 268.25,119.25C268.25,117.73 269.48,116.5 271,116.5C272.51,116.5 273.75,117.73 273.75,119.25"/>
	<path class="st0" d="M165.6,216.41C165.6,217.93 164.37,219.16 162.85,219.16C161.33,219.16 160.1,217.93 160.1,216.41C160.1,214.89 161.33,213.66 162.85,213.66C164.37,213.66 165.6,214.89 165.6,216.41"/>
	<path class="st4" d="M12.08,54C12.08,55.51 10.85,56.75 9.33,56.75C7.81,56.75 6.58,55.51 6.58,54C6.58,52.48 7.81,51.25 9.33,51.25C10.85,51.25 12.08,52.48 12.08,54"/>
	<path class="st0" d="M45.29,108.43C45.29,110.54 43.59,112.24 41.48,112.24C39.37,112.24 37.66,110.54 37.66,108.43C37.66,106.32 39.37,104.61 41.48,104.61C43.59,104.61 45.29,106.32 45.29,108.43"/>
	<path class="st4" d="M173.81,19.58C173.81,20.59 172.99,21.41 171.97,21.41C170.96,21.41 170.14,20.59 170.14,19.58C170.14,18.57 170.96,17.75 171.97,17.75C172.99,17.75 173.81,18.57 173.81,19.58"/>
	<path class="st2" d="M83.09,90.6C83.09,91.61 82.27,92.43 81.26,92.43C80.24,92.43 79.42,91.61 79.42,90.6C79.42,89.59 80.24,88.77 81.26,88.77C82.27,88.77 83.09,89.59 83.09,90.6"/>
	<path class="st7" d="M240.8,132.01C240.8,133.25 239.8,134.24 238.56,134.24C237.33,134.24 236.33,133.25 236.33,132.01C236.33,130.78 237.33,129.78 238.56,129.78C239.8,129.78 240.8,130.78 240.8,132.01"/>
	<path class="st2" d="M127.53,209.41C127.53,210.64 126.53,211.64 125.3,211.64C124.06,211.64 123.06,210.64 123.06,209.41C123.06,208.18 124.06,207.18 125.3,207.18C126.53,207.18 127.53,208.18 127.53,209.41"/>
	<path class="st5" d="M94.34,9L93,9L93,7.65C93,6.78 92.29,6.08 91.42,6.08C90.55,6.08 89.84,6.78 89.84,7.65L89.84,9L88.5,9C87.63,9 86.92,9.71 86.92,10.58C86.92,11.45 87.63,12.15 88.5,12.15L89.84,12.15L89.84,13.5C89.84,14.37 90.55,15.08 91.42,15.08C92.29,15.08 93,14.37 93,13.5L93,12.15L94.34,12.15C95.22,12.15 95.92,11.45 95.92,10.58C95.92,9.71 95.22,9 94.34,9"/>
	<path class="st5" d="M234.75,166.65L233.41,166.65L233.41,165.31C233.41,164.43 232.7,163.73 231.83,163.73C230.96,163.73 230.25,164.43 230.25,165.31L230.25,166.65L228.91,166.65C228.03,166.65 227.33,167.36 227.33,168.23C227.33,169.1 228.03,169.81 228.91,169.81L230.25,169.81L230.25,171.15C230.25,172.02 230.96,172.73 231.83,172.73C232.7,172.73 233.41,172.02 233.41,171.15L233.41,169.81L234.75,169.81C235.62,169.81 236.33,169.1 236.33,168.23C236.33,167.36 235.62,166.65 234.75,166.65"/>
	<path class="st5" d="M239.25,37.83L237.91,37.83L237.91,36.49C237.91,35.62 237.2,34.91 236.33,34.91C235.46,34.91 234.75,35.62 234.75,36.49L234.75,37.83L233.41,37.83C232.53,37.83 231.83,38.54 231.83,39.41C231.83,40.28 232.53,40.99 233.41,40.99L234.75,40.99L234.75,42.33C234.75,43.21 235.46,43.91 236.33,43.91C237.2,43.91 237.91,43.21 237.91,42.33L237.91,40.99L239.25,40.99C240.12,40.99 240.83,40.28 240.83,39.41C240.83,38.54 240.12,37.83 239.25,37.83"/>
	<path class="st5" d="M55.08,142.8L53.73,142.8L53.73,141.46C53.73,140.59 53.03,139.88 52.16,139.88C51.28,139.88 50.58,140.59 50.58,141.46L50.58,142.8L49.23,142.8C48.36,142.8 47.66,143.51 47.66,144.38C47.66,145.25 48.36,145.96 49.23,145.96L50.58,145.96L50.58,147.3C50.58,148.18 51.28,148.88 52.16,148.88C53.03,148.88 53.73,148.18 53.73,147.3L53.73,145.96L55.08,145.96C55.95,145.96 56.66,145.25 56.66,144.38C56.66,143.51 55.95,142.8 55.08,142.8"/>
	<path class="st2" d="M52.22,54.49C51.66,54.49 51.09,54.33 50.58,54L41.44,48.01C40.06,47.1 39.67,45.24 40.58,43.85C41.49,42.47 43.35,42.08 44.73,42.99L53.87,48.98C55.25,49.89 55.64,51.75 54.73,53.14C54.16,54.01 53.2,54.49 52.22,54.49"/>
	<path class="st0" d="M210.18,28.33C209.58,28.33 208.98,28.15 208.45,27.78C207.1,26.83 206.78,24.96 207.73,23.6L215.83,12.1C216.78,10.75 218.65,10.42 220.01,11.38C221.36,12.33 221.69,14.2 220.73,15.56L212.64,27.06C212.05,27.89 211.12,28.33 210.18,28.33"/>
	<path class="st2" d="M264.66,90.1C263.34,90.1 262.13,89.22 261.77,87.88C261.33,86.29 262.28,84.64 263.88,84.21L276.55,80.78C278.15,80.35 279.79,81.3 280.23,82.9C280.66,84.5 279.71,86.14 278.11,86.58L265.44,90C265.18,90.07 264.92,90.1 264.66,90.1"/>
	<path class="st0" d="M245.96,200.57C245.35,200.57 244.73,200.38 244.2,200L233.87,192.5C232.53,191.52 232.23,189.65 233.2,188.3C234.17,186.96 236.05,186.67 237.39,187.64L247.73,195.14C249.07,196.11 249.36,197.99 248.39,199.33C247.8,200.14 246.89,200.57 245.96,200.57"/>
	<path class="st1" d="M34.66,185.34C33.73,185.34 32.81,184.9 32.22,184.08C31.26,182.73 31.57,180.86 32.92,179.89L43.55,172.3C44.9,171.34 46.77,171.65 47.73,173C48.7,174.35 48.39,176.22 47.04,177.19L36.41,184.78C35.88,185.15 35.27,185.34 34.66,185.34"/>
	<path class="st1" d="M130.24,22.58C128.86,22.58 127.62,21.62 127.31,20.21L123.73,3.63C123.38,2.01 124.41,0.41 126.03,0.06C127.65,-0.27 129.25,0.74 129.6,2.36L133.18,18.95C133.53,20.57 132.5,22.16 130.88,22.51C130.66,22.56 130.45,22.58 130.24,22.58"/>
	<path class="st0" d="M3,129.58C1.72,129.58 0.54,128.76 0.14,127.48C-0.35,125.9 0.51,124.22 2.09,123.72L14.76,119.72C16.34,119.22 18.02,120.1 18.52,121.68C19.02,123.26 18.15,124.94 16.57,125.44L3.9,129.44C3.6,129.53 3.29,129.58 3,129.58"/>
	<path class="st1" d="M272,149.58C271.81,149.58 271.62,149.56 271.42,149.52L260.09,147.33C258.47,147.01 257.4,145.44 257.72,143.81C258.03,142.18 259.6,141.12 261.23,141.43L272.57,143.63C274.19,143.95 275.26,145.52 274.94,147.15C274.66,148.58 273.41,149.58 272,149.58"/>
	<path class="st5" d="M90.54,61.68C89.83,61.85 89.29,62.21 88.92,62.76C88.54,63.32 88.43,64.08 88.56,65.05L93.73,63.86C93.51,63.02 93.12,62.41 92.55,62.01C91.97,61.61 91.3,61.5 90.54,61.68M94.11,75.53C91.21,76.2 88.79,75.95 86.83,74.78C84.87,73.61 83.56,71.6 82.9,68.76C82.22,65.82 82.44,63.39 83.56,61.48C84.68,59.56 86.62,58.28 89.38,57.65C92,57.04 94.18,57.25 95.93,58.29C97.67,59.33 98.84,61.13 99.43,63.7L100.05,66.37L89.32,68.86C89.58,69.82 90.11,70.5 90.91,70.9C91.71,71.3 92.69,71.36 93.85,71.1C94.9,70.85 95.85,70.53 96.69,70.12C97.53,69.72 98.41,69.16 99.33,68.44L100.33,72.75C99.5,73.45 98.6,74.01 97.64,74.43C96.68,74.84 95.51,75.21 94.11,75.53"/>
	<path class="st5" d="M125.16,44.06C125.69,44.11 126.2,44.19 126.67,44.31L127.01,44.41L125.98,50.16C125.49,49.99 124.79,49.87 123.9,49.79C122.56,49.68 121.56,49.91 120.9,50.47C120.25,51.03 119.87,51.89 119.77,53.04L119.04,61.79L112.9,61.28L114.38,43.48L118.96,43.86L119.68,46.78L119.98,46.81C120.57,45.91 121.35,45.21 122.31,44.7C123.28,44.2 124.22,43.98 125.16,44.06"/>
	<path class="st5" d="M151.82,52.99C152.35,52.9 152.86,52.84 153.35,52.84L153.7,52.83L154.23,58.65C153.72,58.62 153.02,58.69 152.14,58.86C150.82,59.1 149.91,59.59 149.43,60.3C148.94,61.02 148.8,61.95 149.02,63.08L150.64,71.71L144.58,72.85L141.28,55.29L145.79,54.45L147.26,57.08L147.56,57.02C147.89,55.99 148.45,55.11 149.25,54.37C150.05,53.62 150.9,53.17 151.82,52.99"/>
	<path class="st5" d="M214.73,54.66C215.27,54.65 215.78,54.67 216.27,54.74L216.61,54.79L216.25,60.62C215.74,60.52 215.04,60.47 214.15,60.5C212.8,60.55 211.83,60.88 211.24,61.52C210.66,62.15 210.38,63.05 210.42,64.2L210.7,72.98L204.53,73.18L203.96,55.32L208.55,55.18L209.6,58L209.9,57.99C210.39,57.03 211.08,56.24 211.98,55.63C212.88,55.01 213.8,54.69 214.73,54.66"/>
	<path class="st5" d="M177.92,54.21C177.73,56.81 177.77,58.61 178.02,59.61C178.27,60.6 178.78,61.13 179.55,61.19C180.33,61.24 180.91,60.78 181.3,59.8C181.7,58.81 181.98,57.05 182.17,54.51C182.35,51.97 182.32,50.17 182.07,49.12C181.81,48.08 181.31,47.53 180.54,47.47C179.77,47.42 179.19,47.87 178.8,48.83C178.4,49.8 178.11,51.59 177.92,54.21M188.35,54.96C188.05,59.03 187.16,61.96 185.66,63.75C184.16,65.55 182,66.34 179.19,66.14C176.45,65.94 174.45,64.81 173.19,62.73C171.94,60.65 171.46,57.66 171.74,53.76C172.03,49.67 172.93,46.72 174.43,44.91C175.93,43.1 178.09,42.3 180.9,42.5C183.64,42.7 185.63,43.84 186.89,45.93C188.14,48.02 188.63,51.03 188.35,54.96"/>
</svg>