<svg xmlns="http://www.w3.org/2000/svg"
 xmlns:xlink="http://www.w3.org/1999/xlink"
 width="25px" height="23px"  viewBox="0 0 25 23">
<path fill-rule="evenodd"  fill="#29282d"
 d="M18.435547,21.997177 C16.922852,21.997177 15.692017,20.775642 15.692017,19.272987 C15.692017,17.770733 16.922852,16.548393 18.435547,16.548393 C19.948486,16.548393 21.1792,17.770733 21.1792,19.272987 C21.1792,20.775642 19.948486,21.997177 18.435547,21.997177 ZM18.435547,18.183147 C17.830444,18.183147 17.338257,18.672085 17.338257,19.272987 C17.338257,19.873486 17.830444,20.363228 18.435547,20.363228 C19.040894,20.363228 19.533081,19.873486 19.533081,19.272987 C19.533081,18.672085 19.040894,18.183147 18.435547,18.183147 ZM20.19165,15.376797 C20.19165,15.376797 7.3789062,15.376797 7.3789062,15.376797 C6.998047,15.376797 6.666992,15.117828 6.578247,14.749313 C6.578247,14.749313 3.9031982,3.6338577 3.9031982,3.6338577 C3.9031982,3.6338577 1.836792,3.6338577 1.836792,3.6338577 C1.3820801,3.6338577 1.0135498,3.2685623 1.0135498,2.816681 C1.0135498,2.3651962 1.3820801,1.9995003 1.836792,1.9995003 C1.836792,1.9995003 4.5528564,1.9995003 4.5528564,1.9995003 C4.933716,1.9995003 5.2648926,2.2592735 5.3535156,2.626583 C5.3535156,2.626583 6.0942383,5.7043877 6.0942383,5.7043877 C6.0942383,5.7043877 22.194458,5.7043877 22.194458,5.7043877 C22.44751,5.7043877 22.686646,5.8203773 22.84253,6.0181274 C22.998291,6.2166824 23.053955,6.474846 22.993286,6.718506 C22.993286,6.718506 20.990479,14.756161 20.990479,14.756161 C20.899658,15.120247 20.569946,15.376797 20.19165,15.376797 ZM8.028564,13.741638 C8.028564,13.741638 19.547607,13.741638 19.547607,13.741638 C19.547607,13.741638 21.1427,7.3399467 21.1427,7.3399467 C21.1427,7.3399467 6.487793,7.3399467 6.487793,7.3399467 C6.487793,7.3399467 8.028564,13.741638 8.028564,13.741638 ZM8.476318,21.997177 C6.963501,21.997177 5.732666,20.775642 5.732666,19.272987 C5.732666,17.770733 6.963501,16.548393 8.476318,16.548393 C9.989136,16.548393 11.219849,17.770733 11.219849,19.272987 C11.219849,20.775642 9.989136,21.997177 8.476318,21.997177 ZM8.476318,18.183147 C7.8710938,18.183147 7.3789062,18.672085 7.3789062,19.272987 C7.3789062,19.873486 7.8710938,20.363228 8.476318,20.363228 C9.081543,20.363228 9.57373,19.873486 9.57373,19.272987 C9.57373,18.672085 9.081543,18.183147 8.476318,18.183147 Z"/>
</svg>