<svg xmlns="http://www.w3.org/2000/svg"
 xmlns:xlink="http://www.w3.org/1999/xlink"
 width="24px" height="23px"  viewBox="0 0 24 23">
<path fill-rule="evenodd"  fill="#29282d"
 d="M21.77832,6.5888214 C21.096924,4.16951 19.095581,2.726059 17.605347,2.2177925 C15.901978,1.6229324 13.858154,2.2177925 12.0271,3.8291893 C10.196045,2.259678 8.152222,1.7075081 6.4489746,2.259678 C4.958618,2.8114433 2.9573975,4.2540894 2.276001,6.630707 C1.8076172,8.201023 1.7650146,10.747604 4.234741,13.845547 C5.341919,15.245903 7.045166,17.24112 8.450317,18.811035 C11.133057,21.825203 11.558716,21.993553 11.941895,21.993553 C11.984619,21.993553 11.984619,21.993553 12.0271,21.993553 C12.0271,21.993553 12.069702,21.993553 12.069702,21.993553 C12.069702,21.993553 12.112305,21.993553 12.112305,21.993553 C12.495605,21.993553 12.878784,21.825203 15.561401,18.769146 C16.966675,17.155735 18.669922,15.160519 19.776978,13.802856 C22.246704,10.705719 22.246704,8.158737 21.77832,6.5888214 ZM18.499634,12.784306 C16.540771,15.245903 13.177002,19.108261 12.0271,20.169506 C10.877441,19.108261 7.51355,15.245903 5.5546875,12.784306 C3.9366455,10.790295 3.3405762,8.837769 3.8515625,7.097492 C4.3624268,5.3153305 5.852783,4.2540894 6.959961,3.8726845 C8.194824,3.4054985 9.855469,4.0418396 11.388428,5.527981 C11.686523,5.8244057 12.112305,5.8666954 12.452881,5.6540413 C12.538086,5.612156 12.623291,5.56987 12.6657715,5.4844856 C14.19873,4.0418396 15.859619,3.4054985 17.09436,3.8291893 C18.201416,4.2540894 19.691772,5.3153305 20.202759,7.097492 C20.713623,8.795078 20.117554,10.790295 18.499634,12.784306 Z"/>
</svg>