<svg xmlns="http://www.w3.org/2000/svg"
 xmlns:xlink="http://www.w3.org/1999/xlink"
 width="8px" height="13px"  viewBox="0 0 8 13">
<path fill-rule="evenodd"  fill="#8d8d8d"
 d="M1.6395264,6.16333 C1.6395264,5.9848633 1.6992798,5.8061523 1.817688,5.6708984 C1.817688,5.6708984 5.5594482,1.3874512 5.5594482,1.3874512 C5.7980957,1.1140137 6.184082,1.1140137 6.421753,1.3874512 C6.65979,1.659668 6.65979,2.1013184 6.421753,2.3737793 C6.421753,2.3737793 3.111023,6.16333 3.111023,6.16333 C3.111023,6.16333 6.4212036,9.953857 6.4212036,9.953857 C6.6592407,10.226074 6.6592407,10.667725 6.4212036,10.940186 C6.1834106,11.2126465 5.7974854,11.2126465 5.5594482,10.940186 C5.5594482,10.940186 1.817688,6.656494 1.817688,6.656494 C1.6986694,6.520996 1.6395264,6.342041 1.6395264,6.16333 C1.6395264,6.16333 1.6395264,6.16333 1.6395264,6.16333 ZM1.6395264,6.16333 C1.6395264,6.16333 "/>
</svg>