<svg xmlns="http://www.w3.org/2000/svg"
 xmlns:xlink="http://www.w3.org/1999/xlink"
 width="9px" height="13px"  viewBox="0 0 9 13">
<path fill-rule="evenodd"  fill="#8d8d8d"
 d="M7.0047607,6.178955 C7.0047607,6.0 6.944702,5.820801 6.8254395,5.6848145 C6.8254395,5.6848145 3.0601807,1.3879395 3.0601807,1.3879395 C2.8200684,1.1140137 2.4316406,1.1140137 2.1923828,1.3879395 C1.9530029,1.6611328 1.9530029,2.104248 2.1923828,2.3774414 C2.1923828,2.3774414 5.524048,6.178955 5.524048,6.178955 C5.524048,6.178955 2.1929932,9.981201 2.1929932,9.981201 C1.9534912,10.254395 1.9534912,10.69751 2.1929932,10.970947 C2.432373,11.2438965 2.8208008,11.2438965 3.0601807,10.970947 C3.0601807,10.970947 6.8254395,6.673584 6.8254395,6.673584 C6.9451904,6.537842 7.0047607,6.35791 7.0047607,6.178955 C7.0047607,6.178955 7.0047607,6.178955 7.0047607,6.178955 ZM7.0047607,6.178955 C7.0047607,6.178955 "/>
</svg>