<svg xmlns="http://www.w3.org/2000/svg"
 xmlns:xlink="http://www.w3.org/1999/xlink"
 width="23px" height="24px"  viewBox="0 0 23 24">
<path fill-rule="evenodd"  fill="#29282d"
 d="M20.891968,20.696701 C20.891968,20.696701 15.082153,14.88665 15.082153,14.88665 C16.184082,13.525764 16.847412,11.79636 16.847412,9.913513 C16.847412,5.547718 13.295898,1.9966812 8.930786,1.9966812 C4.5654297,1.9966812 1.0140381,5.547718 1.0140381,9.913513 C1.0140381,14.2785 4.5654297,17.829937 8.930786,17.829937 C10.813721,17.829937 12.543213,17.16661 13.903809,16.065094 C13.903809,16.065094 19.713623,21.87474 19.713623,21.87474 C19.876343,22.037857 20.140137,22.037857 20.302979,21.87474 C20.302979,21.87474 20.891968,21.285522 20.891968,21.285522 C21.05481,21.12281 21.05481,20.859413 20.891968,20.696701 ZM8.930786,16.163364 C5.484253,16.163364 2.6807861,13.360233 2.6807861,9.913513 C2.6807861,6.4671936 5.484253,3.6632576 8.930786,3.6632576 C12.377197,3.6632576 15.180786,6.4671936 15.180786,9.913513 C15.180786,13.360233 12.377197,16.163364 8.930786,16.163364 Z"/>
</svg>