<svg xmlns="http://www.w3.org/2000/svg"
 xmlns:xlink="http://www.w3.org/1999/xlink"
 width="14px" height="8px"  viewBox="0 0 14 8">
<path fill-rule="evenodd"  fill="#8d8d8d"
 d="M6.9831543,6.9993896 C6.8033447,6.9993896 6.623657,6.939209 6.4870605,6.8200073 C6.4870605,6.8200073 2.173462,3.0483398 2.173462,3.0483398 C1.8984375,2.8080444 1.8984375,2.4190674 2.173462,2.1792603 C2.4476318,1.9398804 2.8925781,1.9398804 3.16687,2.1792603 C3.16687,2.1792603 6.9831543,5.5164185 6.9831543,5.5164185 C6.9831543,5.5164185 10.800171,2.1799927 10.800171,2.1799927 C11.074463,1.9398804 11.519409,1.9398804 11.793701,2.1799927 C12.067993,2.4195557 12.067993,2.8085327 11.793701,3.0483398 C11.793701,3.0483398 7.4799805,6.8200073 7.4799805,6.8200073 C7.343506,6.9398804 7.163086,6.9993896 6.9831543,6.9993896 C6.9831543,6.9993896 6.9831543,6.9993896 6.9831543,6.9993896 ZM6.9831543,6.9993896 C6.9831543,6.9993896 "/>
</svg>