<svg xmlns="http://www.w3.org/2000/svg"
 xmlns:xlink="http://www.w3.org/1999/xlink"
 width="20px" height="20px"  viewBox="0 0 20 20">
<path fill-rule="evenodd"  fill="#29282d"
 d="M19.070923,14.927731 C17.98169,13.838295 16.685303,13.032398 15.270874,12.544266 C16.785889,11.500744 17.781128,9.754829 17.781128,7.7801514 C17.781128,4.5919952 15.187622,1.9986954 11.999756,1.9986954 C8.812012,1.9986954 6.218628,4.5919952 6.218628,7.7801514 C6.218628,9.754829 7.213867,11.500744 8.728882,12.544266 C7.314331,13.032398 6.0179443,13.838295 4.928833,14.927731 C3.040039,16.816624 1.9998779,19.327759 1.9998779,21.998383 C1.9998779,21.998383 3.5622559,21.998383 3.5622559,21.998383 C3.5622559,17.346237 7.34729,13.561607 11.999756,13.561607 C16.652344,13.561607 20.437256,17.346237 20.437256,21.998383 C20.437256,21.998383 21.999878,21.998383 21.999878,21.998383 C21.999878,19.327759 20.959595,16.816624 19.070923,14.927731 ZM7.781006,7.7801514 C7.781006,5.453472 9.673706,3.5613594 11.999756,3.5613594 C14.32605,3.5613594 16.218506,5.453472 16.218506,7.7801514 C16.218506,10.10643 14.32605,11.998943 11.999756,11.998943 C9.673706,11.998943 7.781006,10.10643 7.781006,7.7801514 Z"/>
</svg>